<?xml version="1.0" encoding="UTF-8"?>
<svg version="1.1" xmlns="http://www.w3.org/2000/svg" width="1254" height="1254">
<path d="M0 0 C1.45015493 -0.00702161 2.90030955 -0.01410843 4.35046387 -0.02125549 C8.95890752 -0.04065545 13.56730088 -0.04568945 18.17578125 -0.046875 C19.35313025 -0.04753778 19.35313025 -0.04753778 20.55426407 -0.04821396 C43.99619261 -0.05513665 67.2025273 0.22187371 90.48828125 3.203125 C91.91105525 3.37710035 93.33390932 3.55042188 94.75683594 3.72314453 C164.01853069 12.23237105 230.54710135 32.2472319 293.48828125 62.203125 C294.54499023 62.70585938 295.60169922 63.20859375 296.69042969 63.7265625 C343.18064844 86.03940199 386.6959682 115.19854093 425.80566406 148.76318359 C427.58730293 150.28786526 429.37701535 151.80268005 431.16796875 153.31640625 C441.9573535 162.46028925 441.9573535 162.46028925 446.81030273 167.52612305 C448.49283938 169.20768048 450.24239464 170.74107389 452.0546875 172.28125 C457.11082668 176.67816957 461.82527688 181.39375438 466.55078125 186.140625 C467.40994141 186.99591797 468.26910156 187.85121094 469.15429688 188.73242188 C473.5807002 193.16558824 477.86217784 197.66142781 481.9440918 202.41381836 C484.18523112 205.01070533 486.52525825 207.50558529 488.86328125 210.015625 C493.10138826 214.60871875 497.14428318 219.31582722 501.0625 224.1875 C502.8418799 226.39954716 504.63458678 228.59519339 506.4453125 230.78125 C528.62005992 257.62615944 548.4789517 286.82004779 565.48828125 317.203125 C566.00084473 318.1115918 566.5134082 319.02005859 567.04150391 319.95605469 C605.21018308 387.90778115 629.94094152 462.06692629 646.69140625 607.71484375 C646.69842786 609.16499868 646.70551468 610.6151533 646.71266174 612.06530762 C646.7320617 616.67375127 646.7370957 621.28214463 646.73828125 625.890625 C646.73872311 626.67552433 646.73916496 627.46042366 646.73962021 628.26910782 C646.7465429 651.71103636 646.46953254 674.91737105 643.48828125 698.203125 C643.3143059 699.625899 643.14098437 701.04875307 642.96826172 702.47167969 C634.4590352 771.73337444 614.44417435 838.2619451 584.48828125 901.203125 C583.98554687 902.25983398 583.4828125 903.31654297 582.96484375 904.40527344 C560.65200426 950.89549219 531.49286532 994.41081195 497.92822266 1033.52050781 C496.40354099 1035.30214668 494.8887262 1037.0918591 493.375 1038.8828125 C484.231117 1049.67219725 484.231117 1049.67219725 479.1652832 1054.52514648 C477.48372577 1056.20768313 475.95033236 1057.95723839 474.41015625 1059.76953125 C470.01323668 1064.82567043 465.29765187 1069.54012063 460.55078125 1074.265625 C459.69548828 1075.12478516 458.84019531 1075.98394531 457.95898438 1076.86914062 C453.52581801 1081.29554395 449.02997844 1085.57702159 444.27758789 1089.65893555 C441.68070092 1091.90007487 439.18582096 1094.240102 436.67578125 1096.578125 C432.0826875 1100.81623201 427.37557903 1104.85912693 422.50390625 1108.77734375 C420.29185909 1110.55672365 418.09621286 1112.34943053 415.91015625 1114.16015625 C389.06524681 1136.33490367 359.87135846 1156.19379545 329.48828125 1173.203125 C328.12558105 1173.97197021 328.12558105 1173.97197021 326.73535156 1174.75634766 C258.7836251 1212.92502683 184.62447996 1237.65578527 38.9765625 1254.40625 C37.52640757 1254.41327161 36.07625295 1254.42035843 34.62609863 1254.42750549 C30.01765498 1254.44690545 25.40926162 1254.45193945 20.80078125 1254.453125 C20.01588192 1254.45356686 19.23098259 1254.45400871 18.42229843 1254.45446396 C-5.01963011 1254.46138665 -28.2259648 1254.18437629 -51.51171875 1251.203125 C-52.93449275 1251.02914965 -54.35734682 1250.85582812 -55.78027344 1250.68310547 C-125.04196819 1242.17387895 -191.57053885 1222.1590181 -254.51171875 1192.203125 C-256.09678223 1191.44902344 -256.09678223 1191.44902344 -257.71386719 1190.6796875 C-304.20408594 1168.36684801 -347.7194057 1139.20770907 -386.82910156 1105.64306641 C-388.61074043 1104.11838474 -390.40045285 1102.60356995 -392.19140625 1101.08984375 C-402.980791 1091.94596075 -402.980791 1091.94596075 -407.83374023 1086.88012695 C-409.51627688 1085.19856952 -411.26583214 1083.66517611 -413.078125 1082.125 C-418.13426418 1077.72808043 -422.84871438 1073.01249562 -427.57421875 1068.265625 C-428.43337891 1067.41033203 -429.29253906 1066.55503906 -430.17773438 1065.67382812 C-434.6041377 1061.24066176 -438.88561534 1056.74482219 -442.9675293 1051.99243164 C-445.20866862 1049.39554467 -447.54869575 1046.90066471 -449.88671875 1044.390625 C-454.12482576 1039.79753125 -458.16772068 1035.09042278 -462.0859375 1030.21875 C-463.8653174 1028.00670284 -465.65802428 1025.81105661 -467.46875 1023.625 C-489.64349742 996.78009056 -509.5023892 967.58620221 -526.51171875 937.203125 C-527.28056396 935.8404248 -527.28056396 935.8404248 -528.06494141 934.45019531 C-566.23362058 866.49846885 -590.96437902 792.33932371 -607.71484375 646.69140625 C-607.72186536 645.24125132 -607.72895218 643.7910967 -607.73609924 642.34094238 C-607.7554992 637.73249873 -607.7605332 633.12410537 -607.76171875 628.515625 C-607.76216061 627.73072567 -607.76260246 626.94582634 -607.76305771 626.13714218 C-607.7699804 602.69521364 -607.49297004 579.48887895 -604.51171875 556.203125 C-604.3377434 554.780351 -604.16442187 553.35749693 -603.99169922 551.93457031 C-595.4824727 482.67287556 -575.46761185 416.1443049 -545.51171875 353.203125 C-544.75761719 351.61806152 -544.75761719 351.61806152 -543.98828125 350.00097656 C-521.67544176 303.51075781 -492.51630282 259.99543805 -458.95166016 220.88574219 C-457.42697849 219.10410332 -455.9121637 217.3143909 -454.3984375 215.5234375 C-445.2545545 204.73405275 -445.2545545 204.73405275 -440.1887207 199.88110352 C-438.50716327 198.19856687 -436.97376986 196.44901161 -435.43359375 194.63671875 C-431.03667418 189.58057957 -426.32108937 184.86612937 -421.57421875 180.140625 C-420.2912793 178.85188477 -420.2912793 178.85188477 -418.98242188 177.53710938 C-414.54925551 173.11070605 -410.05341594 168.82922841 -405.30102539 164.74731445 C-402.70413842 162.50617513 -400.20925846 160.166148 -397.69921875 157.828125 C-393.106125 153.59001799 -388.39901653 149.54712307 -383.52734375 145.62890625 C-381.31529659 143.84952635 -379.11965036 142.05681947 -376.93359375 140.24609375 C-350.08868431 118.07134633 -320.89479596 98.21245455 -290.51171875 81.203125 C-289.60325195 80.69056152 -288.69478516 80.17799805 -287.75878906 79.64990234 C-219.8070626 41.48122317 -145.64791746 16.75046473 0 0 Z " fill="#FCBC07" transform="translate(607.51171875,-0.203125)"/>
<path d="M0 0 C1.41034769 0.71943038 2.82082562 1.43860548 4.23141479 2.15756226 C4.97051464 2.5368475 5.70961449 2.91613274 6.4711113 3.30691147 C10.46311253 5.34702809 14.47639283 7.34456021 18.48681641 9.34814453 C20.23077441 10.22151121 21.97463292 11.09507657 23.71839905 11.96882629 C30.5114576 15.37151237 37.30553907 18.77215446 44.0997324 22.17257404 C49.22213441 24.73637778 54.34415896 27.30092973 59.46533203 29.8671875 C64.48202583 32.38104749 69.49975234 34.89283563 74.51814079 37.40331078 C76.4002223 38.34525817 78.28195886 39.28789519 80.16330147 40.23131752 C90.13457174 45.23096047 100.13421888 50.15704973 110.20703125 54.94921875 C120.62871906 59.90832512 130.96755263 65.02045062 141.28128052 70.19985962 C144.32126826 71.72642382 147.3626307 73.25022054 150.40429688 74.7734375 C157.94869363 78.55220737 165.49086219 82.33541589 173.03308105 86.11853027 C179.446969 89.33546173 185.86174307 92.55061429 192.27761841 95.76358032 C195.22629736 97.24108257 198.17373039 98.72104748 201.12109375 100.20117188 C211.61461216 105.46149109 222.14591727 110.62461671 232.77113342 115.61470032 C251.93774799 124.6779089 264.76153343 134.33484008 272.80102539 154.53442383 C275.50793651 162.74212623 276.06318275 169.85388857 276.04110718 178.47972107 C276.04563829 179.7812986 276.0501694 181.08287614 276.05483782 182.42389542 C276.0670287 186.02152955 276.06681197 189.61907041 276.06444907 193.21672046 C276.06403989 197.10311801 276.07508996 200.98948605 276.08456421 204.87586975 C276.1011556 212.48587544 276.10667299 220.09585014 276.10778897 227.70587241 C276.10874068 233.89690202 276.11285716 240.08792144 276.11919022 246.27894783 C276.13680048 263.85358063 276.14602986 281.42818905 276.14452927 299.00283074 C276.1444094 300.42310433 276.1444094 300.42310433 276.14428711 301.87207031 C276.14420535 302.82008375 276.14412359 303.76809719 276.14403935 304.7448383 C276.14322735 320.09088769 276.16234381 335.43683872 276.19056384 350.78285968 C276.21934907 366.56156517 276.23310092 382.3402228 276.23137629 398.11895519 C276.23071415 406.96869851 276.23612844 415.81833882 276.25773239 424.6680584 C276.27601893 432.20693724 276.28023088 439.74566642 276.26671354 447.28455793 C276.26022026 451.12470465 276.25993303 454.9645649 276.27742004 458.80468369 C276.38416011 483.87280271 275.26593156 505.36902084 256.96508789 524.38208008 C250.58549341 530.50012256 243.55313057 534.25007002 235.65087891 538.07666016 C230.52246817 540.58501987 225.47654434 543.24083375 220.42602539 545.90161133 C207.17712592 552.84643027 193.7933107 559.51304277 180.39868164 566.17114258 C161.52832514 575.51963254 161.52832514 575.51963254 142.85682774 585.25591946 C138.42472326 587.62625221 133.96213716 589.92073999 129.4609375 592.15673828 C128.43560268 592.6677669 128.43560268 592.6677669 127.38955402 593.18911934 C125.93093224 593.91606452 124.4721046 594.64259676 123.01308441 595.36874199 C120.02337901 596.8571854 117.03533601 598.34894938 114.04728031 599.8407011 C111.68037503 601.02232178 109.31325017 602.20350168 106.9460907 603.38461304 C100.75320454 606.47489281 94.56134641 609.56723064 88.36959362 612.6597805 C83.70102823 614.99145646 79.03208917 617.32237776 74.36230469 619.65161133 C69.78471618 621.93490142 65.20815939 624.22024791 60.63225746 626.50691605 C58.91505628 627.36460874 57.19750979 628.22161053 55.4795742 629.07783127 C44.91270558 634.34502448 34.41775841 639.72999211 23.98513794 645.25862122 C17.84703119 648.51007199 11.66314243 651.66822836 5.46118164 654.79614258 C4.32874023 655.37686523 3.19629883 655.95758789 2.02954102 656.5559082 C-16.39382818 665.83574983 -37.73248561 672.08568266 -58.22631836 665.48364258 C-75.91929781 659.49236911 -92.55719583 650.38947997 -109.21923828 642.04394531 C-111.50728398 640.89978117 -113.79541817 639.755794 -116.08363342 638.61196899 C-120.98346188 636.16216801 -125.8826811 633.71115544 -130.78133202 631.25900078 C-137.87673906 627.70720263 -144.97327319 624.15766122 -152.07006875 620.60863841 C-163.60560242 614.83978081 -175.14024467 609.06914321 -186.67431641 603.29736328 C-197.83888772 597.71049042 -209.00387699 592.12445426 -220.16943359 586.53955078 C-221.20178051 586.02318028 -221.20178051 586.02318028 -222.25498291 585.49637806 C-225.70989552 583.76826889 -229.16481651 582.04017648 -232.6197418 580.31209266 C-239.35138334 576.94505594 -246.08296944 573.57790839 -252.81452942 570.21070862 C-253.46588231 569.88489481 -254.1172352 569.559081 -254.78832606 569.22339404 C-271.20949269 561.0093001 -287.62983046 552.79354965 -304.04995728 544.57737732 C-305.05230585 544.07588327 -306.05465442 543.57438921 -307.08737719 543.05769837 C-308.98868129 542.10624969 -310.88982869 541.15448779 -312.79079759 540.20236957 C-316.58234256 538.30373652 -320.37469588 536.40717157 -324.17690468 534.52997017 C-325.79546899 533.72919705 -325.79546899 533.72919705 -327.44673157 532.9122467 C-328.32079808 532.48258134 -329.1948646 532.05291597 -330.09541798 531.61023045 C-344.64759174 523.91662705 -351.92921992 508.27915719 -357.28626442 493.57409573 C-358.82494189 488.05574413 -358.50833884 482.36013165 -358.4937439 476.67701721 C-358.49827501 475.38375564 -358.50280612 474.09049407 -358.50747454 472.75804275 C-358.51967995 469.17902172 -358.51944697 465.60009433 -358.51708579 462.02105725 C-358.51667698 458.15647457 -358.5277232 454.29192165 -358.53720093 450.42735291 C-358.55380046 442.8583199 -358.55931008 435.28931806 -358.56042568 427.72026838 C-358.56137704 421.56305444 -358.56549174 415.40585075 -358.57182693 409.24864006 C-358.58943965 391.77370847 -358.59866623 374.29880142 -358.59716599 356.82386089 C-358.59708607 355.8821577 -358.59700616 354.9404545 -358.59692383 353.97021484 C-358.59684207 353.02735482 -358.59676031 352.0844948 -358.59667607 351.11306327 C-358.59586407 335.85033935 -358.61497994 320.58771434 -358.64320056 305.32501901 C-358.67197993 289.63562094 -358.68573795 273.94627101 -358.68401301 258.25684589 C-358.68335065 249.45574483 -358.68877447 240.65474733 -358.71036911 231.85367012 C-358.72864793 224.35609371 -358.73287388 216.85866776 -358.71935026 209.36107863 C-358.71285305 205.54131487 -358.71258428 201.72183917 -358.73005676 197.90210342 C-358.8275873 175.12423916 -358.74565075 154.95152089 -341.91381836 137.60864258 C-334.04219913 129.72496881 -323.94971957 125.22422016 -313.99227905 120.50494385 C-310.76743325 118.97639098 -307.55034339 117.43163187 -304.33178711 115.88989258 C-303.70563004 115.59055817 -303.07947296 115.29122375 -302.43434143 114.9828186 C-296.58272806 112.1834193 -290.77716771 109.30134363 -284.98632812 106.37890625 C-281.54180328 104.64119834 -278.09189489 102.91446669 -274.64038086 101.19067383 C-268.69820677 98.22177189 -262.75872857 95.24752251 -256.82064724 92.27044296 C-251.6908333 89.69866055 -246.56019735 87.12852205 -241.42916965 84.55916214 C-238.09075249 82.88735127 -234.75271822 81.21478491 -231.41552734 79.54052734 C-218.38174477 73.00210275 -205.35133325 66.47119413 -192.14706421 60.28140259 C-186.86527702 57.80258902 -181.67012457 55.19998749 -176.53881836 52.42114258 C-171.11278691 49.50178481 -165.64597911 46.67856455 -160.13037109 43.93212891 C-154.04371727 40.89505937 -147.96375264 37.84505333 -141.8894043 34.78344727 C-133.82189856 30.71771151 -125.75085371 26.65907836 -117.67724228 22.60548019 C-112.82981301 20.17129167 -107.98394851 17.73408451 -103.14135742 15.2902832 C-98.40615915 12.90084361 -93.66701474 10.51940354 -88.92511749 8.14328766 C-87.13613998 7.24513582 -85.34856004 6.34419399 -83.56249237 5.44026947 C-57.23840652 -7.87618324 -27.6082567 -14.37507487 0 0 Z " fill="#22201F" transform="translate(669.226318359375,302.516357421875)"/>
<path d="M0 0 C0.13742613 37.37694076 0.24310512 74.75384336 0.30639198 112.13098578 C0.31389594 116.54679692 0.3216619 120.96260757 0.32958984 125.37841797 C0.33116371 126.2575016 0.33273757 127.13658523 0.33435912 128.04230776 C0.36044497 142.26386994 0.40774023 156.48528614 0.46291678 170.70676181 C0.51908745 185.30657086 0.55236569 199.90630362 0.56453097 214.50621629 C0.572751 223.51037659 0.59868353 232.51412422 0.6474988 241.51815745 C0.67929066 247.69817446 0.68878345 253.8779791 0.68100826 260.05807188 C0.67717688 263.62026 0.68291994 267.18172861 0.71523285 270.74378777 C0.75009455 274.61532171 0.7378645 278.48593177 0.7215271 282.35760498 C0.73900415 283.47048063 0.7564812 284.58335628 0.77448785 285.72995543 C0.67636162 294.36687677 -1.80867483 301.9472897 -7.39896548 308.68647552 C-11.32746485 312.2266532 -16.38564638 314.43832962 -21.10546875 316.73046875 C-21.98415115 317.16579422 -22.86283356 317.60111969 -23.7681427 318.04963684 C-26.57088575 319.43659621 -29.37884104 320.812566 -32.1875 322.1875 C-34.94872973 323.54653323 -37.70873399 324.90799088 -40.46760559 326.27180481 C-42.17605652 327.11557999 -43.88591621 327.95651388 -45.59770203 328.79350281 C-51.31902711 331.60886507 -56.96121816 334.55786633 -62.59448242 337.54394531 C-73.26497727 343.18914221 -84.05596258 348.58555527 -94.86081314 353.96798897 C-98.4133173 355.73773841 -101.9645135 357.51009665 -105.51535034 359.28318787 C-113.0506936 363.0453788 -120.5877471 366.80413671 -128.125 370.5625 C-136.27741116 374.62761223 -144.42949031 378.69338321 -152.57960689 382.76309437 C-156.64861931 384.79476313 -160.71918811 386.82329111 -164.79006958 388.85121155 C-175.39578631 394.14191687 -185.95987791 399.48730255 -196.40409851 405.09091187 C-201.45742556 407.79433895 -206.59111745 410.33931662 -211.72802734 412.87939453 C-216.56303028 415.2760524 -221.38457241 417.69932231 -226.20703125 420.12109375 C-228.84854301 421.44557292 -231.49029374 422.76957448 -234.13208008 424.09350586 C-235.94264708 425.00134549 -237.75285978 425.90989201 -239.56274414 426.8190918 C-242.21407612 428.15079053 -244.86667037 429.47994392 -247.51953125 430.80859375 C-248.73344292 431.41942055 -248.73344292 431.41942055 -249.97187805 432.04258728 C-250.72083847 432.41710526 -251.46979889 432.79162323 -252.24145508 433.17749023 C-252.89712967 433.50643784 -253.55280426 433.83538544 -254.22834778 434.17430115 C-256 435 -256 435 -259 436 C-259 334.36 -259 232.72 -259 128 C-253.72 125.36 -248.44 122.72 -243 120 C-240.00574862 118.50201592 -237.01155397 117.00392077 -234.01756287 115.50541687 C-232.41408349 114.70294569 -230.81060344 113.90047586 -229.2071228 113.0980072 C-227.96655436 112.47714139 -227.96655436 112.47714139 -226.70092392 111.84373283 C-207.32126422 102.14489628 -187.94033127 92.44860588 -168.55880642 82.75349712 C-157.38297834 77.16300767 -146.20752882 71.57176391 -135.03295898 65.97875977 C-125.23259171 61.07356321 -115.43150124 56.16981511 -105.6295715 51.2677415 C-100.46251962 48.68356985 -95.29580902 46.09872157 -90.12997246 43.5121212 C-50.90406705 23.87223712 -50.90406705 23.87223712 -34.32150269 16.05175781 C-27.09203009 12.64061589 -19.9735575 9.00364768 -12.8503418 5.37719727 C-11.07251676 4.47334208 -9.29216433 3.5744634 -7.51171875 2.67578125 C-6.49553467 2.15927002 -5.47935059 1.64275879 -4.43237305 1.1105957 C-2 0 -2 0 0 0 Z " fill="#FBBC07" transform="translate(908,490)"/>
<path d="M0 0 C1.19109375 0.01289063 2.3821875 0.02578125 3.609375 0.0390625 C10.51971895 0.67671226 16.29233086 2.59687571 22.41796875 5.78125 C23.38202385 6.26930115 23.38202385 6.26930115 24.36555481 6.76721191 C26.3935166 7.79553589 28.41566015 8.83469919 30.4375 9.875 C32.47107621 10.91314464 34.50581158 11.94894957 36.5415802 12.98278809 C37.80081388 13.6231325 39.05862472 14.26628551 40.31474304 14.91271973 C43.57253312 16.57844007 46.83777069 18.05704506 50.25 19.375 C52.03010621 20.23097756 53.80032291 21.10769534 55.5625 22 C60.15702116 24.32219446 64.75753133 26.6320345 69.36303711 28.93237305 C75.62586025 32.06217285 81.88689735 35.19551926 88.14672852 38.33129883 C96.88310924 42.7075478 105.62041806 47.08193923 114.35835361 51.45508289 C119.6018238 54.07942101 124.84491658 56.70450736 130.0871582 59.33129883 C135.22056234 61.90351159 140.35499752 64.473656 145.49009514 67.04248619 C147.41683383 68.00676266 149.34322736 68.97172921 151.26922798 69.93747902 C162.47927243 75.5578756 173.73414005 81.06756706 185.05654335 86.45822334 C193.10332376 90.29264278 201.09300325 94.23070138 209.05859375 98.23046875 C210.41568686 98.90995399 211.77287203 99.58925537 213.13014221 100.26838684 C216.61104384 102.01069859 220.0907357 103.75541172 223.57012939 105.50073242 C227.15731373 107.29954648 230.74570851 109.09594273 234.33398438 110.89257812 C241.30713728 114.38443141 248.27900654 117.87883731 255.25 121.375 C255.25 122.035 255.25 122.695 255.25 123.375 C253.39583333 124.30208333 251.54166667 125.22916667 249.6875 126.15625 C249.10953171 126.44525681 248.53156342 126.73426361 247.93608093 127.0320282 C244.7372839 128.63152017 241.5383348 130.23070683 238.33911133 131.8293457 C230.48287552 135.75423441 230.48287552 135.75423441 222.63671875 139.69921875 C214.15352053 143.97551397 205.60433185 148.1024462 197.01831055 152.16870117 C191.63912169 154.72370792 186.29179067 157.33721585 180.96743774 160.00448608 C180.27270406 160.35221176 179.57797038 160.69993743 178.86218417 161.05820024 C171.60524948 164.69321747 164.35954873 168.35043901 157.11489105 172.00984573 C139.4099176 180.95218954 121.69228885 189.86926405 103.9687252 198.77469826 C93.74370236 203.91308602 83.52262151 209.05905444 73.31005859 214.22216797 C64.36000762 218.7469701 55.40305297 223.25774484 46.43747389 227.75170553 C41.7027274 230.12559417 36.97175262 232.50639052 32.24903488 234.90413284 C27.82022153 237.15240193 23.38244706 239.38184914 18.93700027 241.59703827 C17.30729004 242.41327103 15.68100634 243.23638642 14.05847168 244.06679153 C11.84564764 245.19802607 9.62189916 246.30399617 7.39364624 247.40444946 C6.7527941 247.73943974 6.11194196 248.07443002 5.45167005 248.41957152 C2.29389864 249.94616985 0.59205316 250.44749885 -2.87854862 249.71189785 C-3.82612758 249.27072156 -4.77370653 248.82954527 -5.75 248.375 C-7.00415695 247.80952155 -7.00415695 247.80952155 -8.2836504 247.23261929 C-9.1262123 246.81106595 -9.9687742 246.38951262 -10.83686829 245.95518494 C-11.81341873 245.46900696 -12.78996918 244.98282898 -13.79611206 244.48191833 C-14.85121979 243.95155472 -15.90632751 243.4211911 -16.9934082 242.87475586 C-18.68014397 242.03281174 -18.68014397 242.03281174 -20.4009552 241.17385864 C-23.47786258 239.63782218 -26.5522538 238.09681173 -29.62615991 236.55477977 C-32.86266477 234.93211247 -36.10129651 233.3137005 -39.33964539 231.69471741 C-44.78907756 228.96953326 -50.23695451 226.24126094 -55.68383789 223.51098633 C-61.93707742 220.3765499 -68.19236024 217.24622458 -74.44887668 214.11833471 C-81.15382134 210.76620355 -87.85722804 207.41100566 -94.56020713 204.05494618 C-96.46755316 203.10021925 -98.37517412 202.14604369 -100.28286171 201.19199944 C-125.49804753 188.57954993 -125.49804753 188.57954993 -135.39205647 183.13967037 C-139.74481544 180.77892891 -144.10895769 179.06155368 -148.75 177.375 C-150.87694563 176.3153757 -152.98277034 175.21203291 -155.0625 174.0625 C-156.73699219 173.14597656 -156.73699219 173.14597656 -158.4453125 172.2109375 C-160.52639238 171.05478201 -162.60490167 169.89397533 -164.6796875 168.7265625 C-168.88429164 166.3800837 -172.99100635 164.20108657 -177.5 162.5 C-181.66178617 160.9093017 -185.53518381 158.94799678 -189.4375 156.8125 C-195.51266917 153.49975646 -201.68012909 150.45320363 -207.9375 147.5 C-218.76541531 142.38295498 -229.48121298 137.05332791 -240.1875 131.6875 C-241.00914642 131.27574524 -241.83079285 130.86399048 -242.67733765 130.4397583 C-247.36959133 128.08755394 -252.06038696 125.73246431 -256.75 123.375 C-256.75 122.715 -256.75 122.055 -256.75 121.375 C-253.31281504 119.72850819 -249.87522903 118.08285554 -246.4375 116.4375 C-245.39456787 115.93822998 -244.35163574 115.43895996 -243.27709961 114.92456055 C-238.37467584 112.57953363 -233.47055228 110.23861315 -228.5546875 107.921875 C-227.75071533 107.54281006 -226.94674316 107.16374512 -226.1184082 106.77319336 C-224.66198801 106.0874654 -223.20488277 105.40318885 -221.74682617 104.72094727 C-214.0126278 101.07871625 -206.38856393 97.21234067 -198.75 93.375 C-197.32025157 92.65710446 -195.89048268 91.93924964 -194.46069336 91.22143555 C-193.39165016 90.68470467 -193.39165016 90.68470467 -192.30101013 90.13713074 C-189.34292286 88.65238266 -186.38429865 87.16870662 -183.42553711 85.68530273 C-181.94567745 84.94287069 -180.4661788 84.19971857 -178.98706055 83.45581055 C-171.08167897 79.48074852 -163.15867031 75.55316967 -155.16209888 71.76430607 C-141.83120236 65.44309592 -128.63717994 58.85951534 -115.46148109 52.22247505 C-111.57252105 50.26371923 -107.68115148 48.30978191 -103.78935242 46.35667419 C-92.74371343 40.81279309 -81.6993195 35.2664675 -70.66137695 29.70727539 C-64.5197948 26.61415388 -58.37532427 23.52685183 -52.22759885 20.4459576 C-48.99594848 18.8261299 -45.76580787 17.20344926 -42.5392704 15.57345772 C-38.95151214 13.76099888 -35.35751281 11.9612585 -31.76293945 10.16235352 C-30.72012817 9.6329718 -29.67731689 9.10359009 -28.60290527 8.5581665 C-19.53629567 4.0433678 -10.28607494 -0.24704547 0 0 Z " fill="#FBBC07" transform="translate(632.75,333.625)"/>
<path d="M0 0 C0.81999245 0.38851922 0.81999245 0.38851922 1.65655041 0.78488731 C4.15601649 1.96911574 6.65552256 3.15325973 9.1550293 4.33740234 C10.44497425 4.94859169 10.44497425 4.94859169 11.7609787 5.5721283 C16.01194628 7.58595589 20.26358819 9.59826352 24.51953125 11.6015625 C48.60570257 22.94599394 48.60570257 22.94599394 57 28 C58.11375 28.433125 58.11375 28.433125 59.25 28.875 C61.865333 29.94490896 64.21035521 31.18848461 66.671875 32.5703125 C67.88762207 33.2511792 67.88762207 33.2511792 69.12792969 33.94580078 C69.74571289 34.29368652 70.36349609 34.64157227 71 35 C71.00219984 36.15902423 71.00219984 36.15902423 71.00444412 37.34146309 C71.0415011 56.1454172 71.10050107 74.94918537 71.18390274 93.75299263 C71.22370652 102.84639913 71.2560922 111.93971892 71.27099609 121.03320312 C71.28400569 128.95939904 71.31095257 136.88540427 71.35461307 144.8114928 C71.37724356 149.00806326 71.39290974 153.20439841 71.39188385 157.40103531 C71.39113817 161.35248724 71.40905159 165.30341868 71.44116783 169.25473595 C71.44967427 170.70349313 71.45141166 172.15230864 71.44580269 173.60107994 C71.43915364 175.58271989 71.45945956 177.56439512 71.48101807 179.54592896 C71.48470524 180.65392412 71.48839241 181.76191929 71.49219131 182.90349007 C72.3197656 187.94986301 74.92491903 191.04992844 78.6875 194.375 C83.65592366 196.81233991 88.19863686 196.86052983 93.50512695 195.23046875 C96.14897851 194.16755269 98.72943092 193.01543698 101.3125 191.8125 C102.69018555 191.19882568 102.69018555 191.19882568 104.09570312 190.57275391 C106.73716041 189.39602849 109.36961197 188.20122618 112 187 C114.3270684 185.94193963 116.65868354 184.90168908 119 183.875 C119.86625 183.48054687 120.7325 183.08609375 121.625 182.6796875 C124.73967915 181.78831551 125.97954174 181.73086167 129 183 C131.42904712 185.31488825 133.44391734 187.91682657 135.5 190.5625 C136.11020996 191.3261084 136.72041992 192.0897168 137.34912109 192.87646484 C138.61875757 194.46572092 139.88352278 196.05887999 141.14355469 197.65576172 C143.93214387 201.17707068 146.78085971 204.64854099 149.625 208.125 C152.88884218 212.1162354 156.112812 216.12657591 159.234375 220.23046875 C159.76208496 220.91544434 160.28979492 221.60041992 160.83349609 222.30615234 C161.82793833 223.60047073 162.81098501 224.90366355 163.77978516 226.21728516 C167.08723697 230.49703105 169.84508181 232.29965532 175 234 C180.70143736 234.72563748 185.45287039 233.50644634 190 230 C195.0154562 224.4171124 194.57717239 218.90953412 194.54589844 211.66064453 C194.56140495 209.8012751 194.56140495 209.8012751 194.57722473 207.90434265 C194.60161087 204.51817784 194.60849098 201.13283621 194.60750484 197.74664164 C194.61063985 194.2031532 194.63627022 190.65982809 194.65948486 187.11642456 C194.7000036 180.4123839 194.72037579 173.70844041 194.73345876 167.00429618 C194.74934285 159.36939063 194.78776435 151.73465011 194.82805204 144.0998404 C194.91039444 128.39994269 194.9645218 112.7000778 195 97 C219.60894146 105.20298049 241.79846748 119.39923374 265 131 C265 232.97 265 334.94 265 440 C261.12794 438.70931333 257.94923316 437.59794576 254.39770508 435.80444336 C253.53852982 435.37316635 252.67935455 434.94188934 251.79414368 434.49754333 C250.87852158 434.03300247 249.96289948 433.56846161 249.01953125 433.08984375 C247.56833138 432.36034264 247.56833138 432.36034264 246.08781433 431.61610413 C242.99410948 430.06037429 239.90311988 428.49934829 236.8125 426.9375 C232.77877124 424.90210271 228.74366926 422.86946532 224.70703125 420.83984375 C223.71879364 420.34274902 222.73055603 419.8456543 221.71237183 419.33349609 C214.61325499 415.77570612 207.46913614 412.3256647 200.26899719 408.97703552 C195.34173212 406.67748153 190.53564789 404.20521261 185.75 401.625 C179.75025591 398.39569145 173.68132294 395.39074195 167.515625 392.4921875 C156.47849685 387.25517341 145.54710643 381.81548655 134.625 376.34375 C133.75637581 375.90869518 132.88775162 375.47364037 131.99280548 375.02540207 C124.74369088 371.3938282 117.49717743 367.75707509 110.25073242 364.12017822 C103.95999186 360.9631978 97.66831269 357.80810017 91.375 354.65625 C90.07918157 354.00721584 90.07918157 354.00721584 88.75718498 353.34506989 C76.29543059 347.10723168 63.78115223 341.00268655 51.18438721 335.04150391 C44.78881208 331.99212857 38.47238025 328.78185333 32.14746094 325.58935547 C25.33829076 322.15420844 25.33829076 322.15420844 18.45703125 318.8671875 C10.32926915 315.07539111 5.2442352 311.77780558 1.37801647 303.54692078 C-0.60989158 298.01333292 -0.40535055 292.50390853 -0.36076355 286.68676758 C-0.36332682 285.45895002 -0.3658901 284.23113247 -0.36853105 282.96610832 C-0.37260545 279.57491671 -0.36327861 276.18424913 -0.34819686 272.7931211 C-0.33520427 269.12996955 -0.33962823 265.46683328 -0.34190369 261.80366516 C-0.34347439 255.46259759 -0.33408647 249.12162284 -0.31719017 242.78057861 C-0.29277714 233.61258347 -0.28499255 224.44463307 -0.2812262 215.27660894 C-0.27466532 200.40101465 -0.25471405 185.5254698 -0.22631836 170.64990234 C-0.19876836 156.20231371 -0.17753939 141.75473852 -0.16479492 127.30712891 C-0.16400675 126.41611902 -0.16321858 125.52510913 -0.16240653 124.60709894 C-0.15849133 120.13702679 -0.15470022 115.66695455 -0.15097082 111.19688225 C-0.11988625 74.13121993 -0.06706037 37.06561382 0 0 Z " fill="#FBBC07" transform="translate(348,486)"/>
<path d="M0 0 C4.08028301 0.8160566 6.4890054 1.56200232 10.078125 3.37670898 C11.06264648 3.87069687 12.04716797 4.36468475 13.06152344 4.87364197 C14.1137207 5.40905106 15.16591797 5.94446014 16.25 6.49609375 C17.34086914 7.04483658 18.43173828 7.59357941 19.55566406 8.15895081 C23.03999336 9.912814 26.52015967 11.67474939 30 13.4375 C33.48051337 15.19530347 36.96187838 16.95138893 40.44433594 18.70533752 C42.61033876 19.79680738 44.77510124 20.89074296 46.93847656 21.9874115 C47.92299805 22.48455154 48.90751953 22.98169159 49.921875 23.49389648 C51.21496582 24.14889381 51.21496582 24.14889381 52.53417969 24.81712341 C54.97337158 25.9872261 57.48816639 26.99526656 60 28 C60 59.02 60 90.04 60 122 C59.34 122 58.68 122 58 122 C57.06448078 120.63885194 56.13826199 119.27059884 55.25341797 117.87597656 C52.78311233 114.17869793 49.88720103 110.80393107 47.0625 107.375 C46.45470703 106.62476563 45.84691406 105.87453125 45.22070312 105.1015625 C38.6691065 96.96392644 38.6691065 96.96392644 29.1875 93.625 C21.06528689 93.70360206 13.47541184 97.66422209 6.375 101.3125 C3 103 3 103 0 103 C0 69.01 0 35.02 0 0 Z " fill="#FABB07" transform="translate(451,538)"/>
<path d="M0 0 C6.75 2.25 6.75 2.25 10 5 C9.01 5.33 8.02 5.66 7 6 C7 5.34 7 4.68 7 4 C4.03 3.505 4.03 3.505 1 3 C1.07359238 3.65215988 1.14718475 4.30431976 1.2230072 4.97624207 C2.35743102 16.8622955 2.02132896 28.75133005 1.87890625 40.67578125 C1.85456464 43.05616262 1.83072321 45.43654915 1.80735779 47.81694031 C1.74491856 54.0426121 1.67574093 60.26819097 1.60510254 66.49377441 C1.53405339 72.8623435 1.46945633 79.23097779 1.40429688 85.59960938 C1.27580322 98.06647793 1.14018223 110.53325778 1 123 C0.67 123 0.34 123 0 123 C0 82.41 0 41.82 0 0 Z " fill="#F0B608" transform="translate(545,584)"/>
<path d="M0 0 C0 0.99 0 1.98 0 3 C-5.39459439 6.08467498 -9.79011871 7.55643705 -16 8 C-13.10414095 5.70351643 -10.1827969 3.95652443 -6.875 2.3125 C-5.57175781 1.65701172 -5.57175781 1.65701172 -4.2421875 0.98828125 C-2 0 -2 0 0 0 Z " fill="#2E2A21" transform="translate(564,320)"/>
<path d="M0 0 C-3 2 -3 2 -6 2 C-6.33 3.65 -6.66 5.3 -7 7 C-8.98 6.34 -10.96 5.68 -13 5 C-13 4.34 -13 3.68 -13 3 C-11.5903653 2.29819469 -10.17192359 1.61406042 -8.75 0.9375 C-7.96109375 0.55464844 -7.1721875 0.17179687 -6.359375 -0.22265625 C-3.74006478 -1.08564091 -2.55144824 -0.93045933 0 0 Z " fill="#E1AF07" transform="translate(389,452)"/>
<path d="M0 0 C0 0.99 0 1.98 0 3 C-1.91040052 3.8680908 -3.82860737 4.71901783 -5.75 5.5625 C-6.81734375 6.03816406 -7.8846875 6.51382813 -8.984375 7.00390625 C-11.98369837 7.9946154 -13.13421241 8.16161779 -16 7 C-13.71070947 5.82845707 -11.41881638 4.66261926 -9.125 3.5 C-8.47402344 3.16613281 -7.82304688 2.83226562 -7.15234375 2.48828125 C-2.2265625 0 -2.2265625 0 0 0 Z " fill="#3B321F" transform="translate(779,511)"/>
<path d="M0 0 C0.74609375 1.734375 0.74609375 1.734375 1 4 C-0.65234375 6.140625 -0.65234375 6.140625 -2.9375 8.25 C-3.68902344 8.95640625 -4.44054687 9.6628125 -5.21484375 10.390625 C-5.80394531 10.92171875 -6.39304687 11.4528125 -7 12 C-7.99 11.67 -8.98 11.34 -10 11 C-9.44570313 10.45730469 -8.89140625 9.91460938 -8.3203125 9.35546875 C-7.23363281 8.28232422 -7.23363281 8.28232422 -6.125 7.1875 C-5.40570312 6.47980469 -4.68640625 5.77210938 -3.9453125 5.04296875 C-1.84641063 2.95600806 -1.84641063 2.95600806 0 0 Z " fill="#E5B00A" transform="translate(932,819)"/>
<path d="M0 0 C1.20284062 3.98655749 0.61262471 6.12970069 -1 10 C-2.5 12.375 -2.5 12.375 -4 14 C-4.66 14 -5.32 14 -6 14 C-4.50829734 9.0276578 -2.39542583 4.58154261 0 0 Z " fill="#D5A508" transform="translate(941,802)"/>
<path d="M0 0 C1.32 0.33 2.64 0.66 4 1 C-0.95 3.31 -5.9 5.62 -11 8 C-10.67 6.35 -10.34 4.7 -10 3 C-8.906875 2.87625 -7.81375 2.7525 -6.6875 2.625 C-2.92618198 2.24535199 -2.92618198 2.24535199 0 0 Z " fill="#EFBB0B" transform="translate(542,328)"/>
<path d="M0 0 C0 0.99 0 1.98 0 3 C-1.98 3.33 -3.96 3.66 -6 4 C-6 4.66 -6 5.32 -6 6 C-7.875 6.625 -7.875 6.625 -10 7 C-10.66 6.34 -11.32 5.68 -12 5 C-10.37750059 4.16180842 -8.75191503 3.3295884 -7.125 2.5 C-6.22007812 2.0359375 -5.31515625 1.571875 -4.3828125 1.09375 C-2 0 -2 0 0 0 Z " fill="#332D22" transform="translate(729,536)"/>
<path d="M0 0 C4.9723422 1.49170266 9.41845739 3.60457417 14 6 C10.45026831 7.1832439 8.60040463 6.90010116 5 6 C3.25 4.5 3.25 4.5 2 3 C1.34 2.67 0.68 2.34 0 2 C0 1.34 0 0.68 0 0 Z " fill="#EDBA0A" transform="translate(359,492)"/>
<path d="M0 0 C0 0.99 0 1.98 0 3 C-4.22949995 5.41685712 -7.12335991 6.34833144 -12 6 C-8.59780735 3.25207517 -4.51535412 0 0 0 Z " fill="#342E22" transform="translate(486,359)"/>
<path d="M0 0 C0.55171875 0.37898438 1.1034375 0.75796875 1.671875 1.1484375 C0.09462153 1.84977349 -1.49023833 2.5340205 -3.078125 3.2109375 C-3.95984375 3.59378906 -4.8415625 3.97664063 -5.75 4.37109375 C-8.48068809 5.19443758 -9.69713847 5.1258367 -12.328125 4.1484375 C-10.7556085 3.25414376 -9.16958759 2.38356323 -7.578125 1.5234375 C-6.69640625 1.03617187 -5.8146875 0.54890625 -4.90625 0.046875 C-2.328125 -0.8515625 -2.328125 -0.8515625 0 0 Z " fill="#3C3322" transform="translate(584.328125,310.8515625)"/>
<path d="M0 0 C0.66 0.33 1.32 0.66 2 1 C2 1.66 2 2.32 2 3 C0.42274653 3.70133599 -1.16211333 4.385583 -2.75 5.0625 C-3.63171875 5.44535156 -4.5134375 5.82820313 -5.421875 6.22265625 C-8.15256309 7.04600008 -9.36901347 6.9773992 -12 6 C-10.04669132 4.96958487 -8.08718472 3.9509107 -6.125 2.9375 C-5.03445313 2.36902344 -3.94390625 1.80054688 -2.8203125 1.21484375 C-1.42425781 0.61349609 -1.42425781 0.61349609 0 0 Z " fill="#43381F" transform="translate(600,301)"/>
<path d="M0 0 C-4.26311718 4.12989477 -7.28758534 4.61271765 -13 5 C-4.82022472 -1.60674157 -4.82022472 -1.60674157 0 0 Z " fill="#2F2A24" transform="translate(656,574)"/>
<path d="M0 0 C3.3 1.65 6.6 3.3 10 5 C10 5.66 10 6.32 10 7 C5.76570244 5.68938409 1.92592596 4.05643741 -2 2 C-1.34 1.34 -0.68 0.68 0 0 Z " fill="#D2A50B" transform="translate(724,328)"/>
<path d="M0 0 C0 2 0 2 -1.5 3.5625 C-4.9985316 5.57415567 -7.98949133 5.66579094 -12 6 C-8.59780735 3.25207517 -4.51535412 0 0 0 Z " fill="#D6A70B" transform="translate(847,520)"/>
<path d="M0 0 C2.64 0 5.28 0 8 0 C8 0.99 8 1.98 8 3 C5.69 3 3.38 3 1 3 C0.67 2.01 0.34 1.02 0 0 Z " fill="#2B271E" transform="translate(522,718)"/>
<path d="M0 0 C-0.33 1.32 -0.66 2.64 -1 4 C-5.455 4.495 -5.455 4.495 -10 5 C-3.63636364 0 -3.63636364 0 0 0 Z " fill="#DCA90A" transform="translate(831,528)"/>
<path d="M0 0 C0 0.99 0 1.98 0 3 C-3.4019487 5.09350689 -6.05272412 5.17942163 -10 5 C-3.63636364 0 -3.63636364 0 0 0 Z " fill="#383022" transform="translate(470,367)"/>
<path d="M0 0 C-0.33 0.66 -0.66 1.32 -1 2 C-3.72265625 2.6328125 -3.72265625 2.6328125 -7.0625 3.125 C-8.16722656 3.29257812 -9.27195312 3.46015625 -10.41015625 3.6328125 C-11.69212891 3.81457031 -11.69212891 3.81457031 -13 4 C-13 3.01 -13 2.02 -13 1 C-8.61414671 0.29826347 -4.44209357 -0.10834375 0 0 Z " fill="#E5B70C" transform="translate(623,294)"/>
<path d="M0 0 C-3.42346555 3.14958831 -6.44262737 3.56179109 -11 4 C-4.14893617 -1.38297872 -4.14893617 -1.38297872 0 0 Z " fill="#372F20" transform="translate(881,811)"/>
<path d="M0 0 C0.66 0 1.32 0 2 0 C1.34 3.96 0.68 7.92 0 12 C-0.33 12 -0.66 12 -1 12 C-1.02687279 10.18757948 -1.04633715 8.37504767 -1.0625 6.5625 C-1.07410156 5.55316406 -1.08570313 4.54382813 -1.09765625 3.50390625 C-1 1 -1 1 0 0 Z " fill="#2F2B23" transform="translate(942,790)"/>
<path d="M0 0 C4.12751449 0.60698743 7.3321148 2.03810791 11 4 C11 4.33 11 4.66 11 5 C6.94393835 4.53199289 3.53411321 4.12046792 0 2 C0 1.34 0 0.68 0 0 Z " fill="#2D281F" transform="translate(602,570)"/>
<path d="M0 0 C0 0.66 0 1.32 0 2 C-1.98 2.66 -3.96 3.32 -6 4 C-6 4.66 -6 5.32 -6 6 C-7.32 5.34 -8.64 4.68 -10 4 C-8.71086513 3.32845067 -7.41859796 2.66291141 -6.125 2 C-5.40570312 1.62875 -4.68640625 1.2575 -3.9453125 0.875 C-2 0 -2 0 0 0 Z " fill="#382F20" transform="translate(713,544)"/>
<path d="M0 0 C0 0.99 0 1.98 0 3 C-2.3125 4.125 -2.3125 4.125 -5 5 C-5.99 4.34 -6.98 3.68 -8 3 C-2.25 0 -2.25 0 0 0 Z " fill="#423622" transform="translate(660,921)"/>
<path d="M0 0 C0 0.99 0 1.98 0 3 C-2.3125 4.125 -2.3125 4.125 -5 5 C-5.99 4.34 -6.98 3.68 -8 3 C-2.25 0 -2.25 0 0 0 Z " fill="#DDA908" transform="translate(815,536)"/>
<path d="M0 0 C2.475 0.99 2.475 0.99 5 2 C2.61426621 3.89213369 0.92824652 5.02391783 -2 6 C-1.34 4.02 -0.68 2.04 0 0 Z " fill="#F0BA0E" transform="translate(557,318)"/>
<path d="M0 0 C3.37462715 0.54723683 5.08235 1.0549 8 3 C8 3.66 8 4.32 8 5 C2.25 3.125 2.25 3.125 0 2 C0 1.34 0 0.68 0 0 Z " fill="#D8AB0C" transform="translate(680,307)"/>
<path d="M0 0 C0 0.99 0 1.98 0 3 C-3.22791555 5.1519437 -4.28400809 5.20086443 -8 5 C-5.44008376 2.98863724 -2.95409701 1.37154504 0 0 Z " fill="#3B3121" transform="translate(898,800)"/>
<path d="M0 0 C3.26954202 0.56371414 4.82575883 1.49962266 7 4 C6.01 4.495 6.01 4.495 5 5 C2.96855359 4.06553465 0.96466413 3.06775224 -1 2 C-0.67 1.34 -0.34 0.68 0 0 Z " fill="#372D1D" transform="translate(881,450)"/>
<path d="M0 0 C0 0.99 0 1.98 0 3 C-2.70879335 4.35439668 -5.00933268 4.06501451 -8 4 C-2.7826087 0 -2.7826087 0 0 0 Z " fill="#3B3222" transform="translate(540,332)"/>
<path d="M0 0 C0 0.99 0 1.98 0 3 C-2.70879335 4.35439668 -5.00933268 4.06501451 -8 4 C-2.7826087 0 -2.7826087 0 0 0 Z " fill="#3B3221" transform="translate(564,320)"/>
<path d="M0 0 C2.4375 1.25 2.4375 1.25 3.4375 4.25 C-2.3125 2.5 -2.3125 2.5 -4.5625 0.25 C-2.5625 -0.75 -2.5625 -0.75 0 0 Z " fill="#CDA00A" transform="translate(696.5625,313.75)"/>
<path d="M0 0 C-2.97 1.32 -5.94 2.64 -9 4 C-8.67 2.68 -8.34 1.36 -8 0 C-4.71303767 -0.79953138 -3.28976808 -1.09658936 0 0 Z " fill="#2D271F" transform="translate(756,916)"/>
<path d="M0 0 C2.08954032 4.17908064 2.16552619 4.80410573 1 9 C0.34 9 -0.32 9 -1 9 C-0.67 6.03 -0.34 3.06 0 0 Z " fill="#2D2923" transform="translate(313,465)"/>
<path d="M0 0 C4.75 0.875 4.75 0.875 7 2 C7 2.66 7 3.32 7 4 C6.01 4.33 5.02 4.66 4 5 C3.34 4.67 2.68 4.34 2 4 C2 3.01 2 2.02 2 1 C1.34 0.67 0.68 0.34 0 0 Z " fill="#ECB906" transform="translate(881,453)"/>
<path d="M0 0 C0.53625 0.226875 1.0725 0.45375 1.625 0.6875 C-3.79038462 3.76442308 -3.79038462 3.76442308 -6.75 3.375 C-7.554375 3.0346875 -7.554375 3.0346875 -8.375 2.6875 C-2.95961538 -0.38942308 -2.95961538 -0.38942308 0 0 Z " fill="#ECB609" transform="translate(387.375,451.3125)"/>
<path d="M0 0 C2.03144641 0.93446535 4.03533587 1.93224776 6 3 C6 3.66 6 4.32 6 5 C0.25 3.25 0.25 3.25 -2 1 C-1.34 0.67 -0.68 0.34 0 0 Z " fill="#4A3E1C" transform="translate(674,347)"/>
<path d="M0 0 C-0.66 1.32 -1.32 2.64 -2 4 C-3.98 4 -5.96 4 -8 4 C-2.7826087 0 -2.7826087 0 0 0 Z " fill="#382F1E" transform="translate(532,336)"/>
</svg>
